<svg width="64" height="61" viewBox="0 0 64 61" fill="none" xmlns="http://www.w3.org/2000/svg">
<ellipse cx="32" cy="30.5047" rx="32" ry="30.5047" fill="#F9F9F9"/>
<g clip-path="url(#clip0_4_216)">
<path d="M26.8442 15.1183C23.4471 16.2968 20.5174 18.5336 18.4855 21.5002C16.4536 24.4668 15.4266 28.0068 15.5553 31.6003C15.684 35.1937 16.9616 38.6512 19.2005 41.4648C21.4395 44.2784 24.5216 46.2999 27.9944 47.2324C30.8098 47.9589 33.7595 47.9908 36.59 47.3254C39.1541 46.7494 41.5247 45.5174 43.4697 43.75C45.494 41.8544 46.9633 39.4429 47.7197 36.7747C48.5419 33.8732 48.6881 30.8219 48.1473 27.855H32.3373V34.4133H41.4934C41.3104 35.4593 40.9183 36.4577 40.3405 37.3486C39.7627 38.2395 39.0111 39.0047 38.1306 39.5983C37.0126 40.3379 35.7522 40.8355 34.4305 41.0593C33.1049 41.3057 31.7451 41.3057 30.4195 41.0593C29.076 40.7815 27.805 40.2269 26.6875 39.431C24.8923 38.1602 23.5443 36.3548 22.8359 34.2725C22.1156 32.1512 22.1156 29.8515 22.8359 27.7302C23.3402 26.2433 24.1737 24.8894 25.2744 23.7697C26.5339 22.4648 28.1286 21.5321 29.8834 21.0738C31.6382 20.6156 33.4853 20.6495 35.222 21.1719C36.5788 21.5884 37.8194 22.3161 38.8452 23.2969C39.8776 22.2698 40.9082 21.2401 41.937 20.2077C42.4683 19.6525 43.0473 19.1239 43.5706 18.5555C42.0049 17.0985 40.1671 15.9648 38.1625 15.2193C34.512 13.8938 30.5178 13.8581 26.8442 15.1183Z" fill="white"/>
<path d="M26.8442 15.1184C30.5174 13.8574 34.5117 13.892 38.1625 15.2167C40.1675 15.9672 42.0045 17.1064 43.568 18.5689C43.0367 19.1373 42.4762 19.6685 41.9344 20.221C40.9037 21.2499 39.874 22.2752 38.8452 23.297C37.8194 22.3161 36.5788 21.5885 35.222 21.172C33.4858 20.6478 31.6388 20.6119 29.8836 21.0682C28.1283 21.5246 26.5327 22.4556 25.2717 23.7592C24.1711 24.8789 23.3375 26.2327 22.8333 27.7196L17.3269 23.4564C19.2978 19.5479 22.7104 16.5581 26.8442 15.1184Z" fill="#E33629"/>
<path d="M15.8659 27.6797C16.1619 26.2129 16.6532 24.7925 17.3269 23.4563L22.8333 27.7302C22.1129 29.8515 22.1129 32.1513 22.8333 34.2725C20.9987 35.6892 19.1632 37.113 17.3269 38.5438C15.6405 35.1871 15.1262 31.3626 15.8659 27.6797Z" fill="#F8BD00"/>
<path d="M32.3373 27.8523H48.1473C48.6881 30.8191 48.5418 33.8705 47.7197 36.772C46.9633 39.4401 45.494 41.8517 43.4697 43.7473C41.6926 42.3607 39.9076 40.9848 38.1306 39.5982C39.0116 39.004 39.7636 38.238 40.3414 37.3461C40.9193 36.4542 41.3111 35.4549 41.4934 34.4079H32.3373C32.3347 32.2245 32.3373 30.0384 32.3373 27.8523Z" fill="#587DBD"/>
<path d="M17.3242 38.5437C19.1606 37.127 20.996 35.7033 22.8306 34.2725C23.5404 36.3555 24.8903 38.1609 26.6875 39.4309C27.8085 40.2232 29.0822 40.7732 30.4275 41.0459C31.7531 41.2924 33.1128 41.2924 34.4384 41.0459C35.7602 40.8222 37.0205 40.3245 38.1386 39.585C39.9156 40.9715 41.7006 42.3475 43.4777 43.734C41.533 45.5024 39.1624 46.7353 36.598 47.312C33.7675 47.9774 30.8178 47.9455 28.0023 47.219C25.7756 46.6245 23.6957 45.5764 21.893 44.1404C19.9849 42.6255 18.4264 40.7165 17.3242 38.5437Z" fill="#319F43"/>
</g>
<defs>
<clipPath id="clip0_4_216">
<rect width="34" height="34" fill="white" transform="translate(15 14)"/>
</clipPath>
</defs>
</svg>
